#!OML:ASF Y:\EmotionMaleHayes\Project 1\Capture day 1\Session 1\Male1.ASF
:FULLY-SPECIFIED
:DEGREES
2336
root -28.946 17.0805 -1.25952 362.723 56.0089 -351.205
lowerback 5.14971 1.66006 -6.31132
upperback 1.04982 1.86071 -2.3634
thorax -1.92404 0.974054 0.969777
lowerneck -15.67 11.1583 13.4372
upperneck 23.5958 13.8613 -5.42793
head 11.6455 6.93541 -1.99099
rclavicle -4.03215e-014 -1.47101e-014
rhumerus -41.3782 -4.9706 -64.8861
rradius 32.8545
rwrist -0.890407
rhand -12.1642 -34.6385
rfingers 7.12502
rthumb 13.8988 -64.1541
lclavicle -4.03215e-014 -1.47101e-014
lhumerus -34.5519 -10.0252 80.7543
lradius 31.4026
lwrist -5.70186
lhand -15.0054 -20.5221
lfingers 7.12502
lthumb 11.1595 9.16116
rfemur 3.79315 3.57137 6.70996
rtibia 11.1063
rfoot -14.3289 11.2434
rtoes 2.37158
lfemur 14.9148 -18.9155 -18.6429
ltibia 18.0653
lfoot -1.30356 -15.97
ltoes 23.1478
2337
root -28.9711 17.0857 -1.19171 362.425 56.9336 -351.664
lowerback 5.3204 1.6556 -6.04415
upperback 1.03876 1.85518 -2.21819
thorax -2.02736 0.971758 0.966334
lowerneck -15.8511 11.0266 13.2871
upperneck 23.5737 13.6881 -5.44217
head 11.6417 6.83858 -1.99761
rclavicle 6.39217e-015 -1.19271e-015
rhumerus -40.9694 -4.78796 -64.4546
rradius 33.0929
rwrist -0.959279
rhand -12.1082 -33.9291
rfingers 7.12502
rthumb 13.9527 -63.4409
lclavicle 6.39217e-015 -1.19271e-015
lhumerus -34.481 -9.34026 79.9163
lradius 31.3713
lwrist -5.62536
lhand -14.5128 -20.4868
lfingers 7.12502
lthumb 11.6346 9.17022
rfemur 4.23661 3.32643 7.37459
rtibia 10.746
rfoot -14.3412 10.6984
rtoes 3.94927
lfemur 14.4654 -18.6969 -17.5472
ltibia 18.3101
lfoot -0.653955 -16.2579
ltoes 24.4903
2338
root -28.9899 17.0865 -1.12579 362.412 57.8605 -351.859
lowerback 5.56616 1.59779 -5.98927
upperback 0.838751 1.75113 -2.02698
thorax -2.37014 0.929586 1.13014
lowerneck -15.857 10.8987 13.0507
upperneck 23.5476 13.5104 -5.23918
head 11.578 6.76395 -1.92229
rclavicle 1.89109e-014 -1.59028e-014
rhumerus -40.6281 -4.61221 -63.7628
rradius 33.1696
rwrist -0.541168
rhand -11.0351 -34.126
rfingers 7.12502
rthumb 14.9867 -63.5637
lclavicle 1.89109e-014 -1.59028e-014
lhumerus -34.8124 -8.46328 79.1918
lradius 31.455
lwrist -5.74719
lhand -14.6408 -20.1969
lfingers 7.12502
lthumb 11.5112 9.46704
rfemur 4.62843 2.81285 7.73725
rtibia 10.3433
rfoot -14.3338 10.3356
rtoes 4.90331
lfemur 13.9433 -18.5413 -16.6911
ltibia 18.5577
lfoot 0.00549015 -16.3745
ltoes 26.1266
2339
root -28.9977 17.0886 -1.06065 362.666 58.6178 -351.631
lowerback 5.78909 1.6307 -6.14309
upperback 0.667161 1.7596 -1.88734
thorax -2.68256 0.945045 1.34945
lowerneck -15.747 10.6578 12.7711
upperneck 23.5483 13.2759 -5.28175
head 11.5127 6.63679 -1.94498
rclavicle 3.14111e-014 -1.11319e-014
rhumerus -40.3457 -4.50005 -62.9628
rradius 33.1058
rwrist -0.313696
rhand -10.3059 -33.8438
rfingers 7.12502
rthumb 15.689 -63.2278
lclavicle 3.14111e-014 -1.11319e-014
lhumerus -35.2017 -7.86325 78.6444
lradius 31.5985
lwrist -5.61549
lhand -14.9426 -20.2213
lfingers 7.12502
lthumb 11.2201 9.45866
rfemur 5.09645 2.27202 7.71457
rtibia 9.97305
rfoot -14.3182 10.3546
rtoes 6.02385
lfemur 13.8175 -18.6564 -16.5235
ltibia 18.6049
lfoot 0.101838 -16.0257
ltoes 26.0061
2340
root -29.015 17.0922 -0.998204 362.632 59.3724 -351.709
lowerback 6.03911 1.72067 -6.16292
upperback 0.563923 1.85501 -1.69915
thorax -2.9435 1.0006 1.53724
lowerneck -15.8259 10.4138 12.6393
upperneck 23.5973 13.0091 -5.45996
head 11.5218 6.4857 -2.03396
rclavicle 1.52101e-014 2.62396e-014
rhumerus -40.0822 -4.15116 -62.3946
rradius 33.2603
rwrist -1.0129
rhand -10.8349 -33.7096
rfingers 7.12502
rthumb 15.1795 -63.1329
lclavicle 1.52101e-014 2.62396e-014
lhumerus -35.419 -7.55981 78.2335
lradius 31.714
lwrist -5.20826
lhand -15.1327 -20.5998
lfingers 7.12502
lthumb 11.0368 9.08999
rfemur 5.49531 1.85836 7.96238
rtibia 9.70813
rfoot -14.4403 10.2428
rtoes 6.13519
lfemur 13.8217 -19.4033 -16.5862
ltibia 18.734
lfoot -0.402354 -15.1428
ltoes 24.5123
2341
root -29.0356 17.0998 -0.937948 362.406 60.3132 -351.797
lowerback 6.04906 1.74185 -5.69369
upperback 0.86621 1.9287 -1.82783
thorax -2.62064 1.02071 1.14267
lowerneck -16.0025 10.2416 12.5772
upperneck 23.19 12.7087 -5.45222
head 11.3651 6.33629 -2.07269
rclavicle 2.31398e-014 1.07344e-014
rhumerus -39.4453 -3.97701 -62.6391
rradius 33.6818
rwrist -2.7039
rhand -12.3045 -35.1143
rfingers 7.12502
rthumb 13.7636 -64.639
lclavicle 2.31398e-014 1.07344e-014
lhumerus -34.9806 -7.58121 77.3839
lradius 31.7262
lwrist -5.03282
lhand -15.627 -20.8905
lfingers 7.12502
lthumb 10.56 8.82426
rfemur 6.17189 1.43141 8.28955
rtibia 9.36687
rfoot -14.6848 9.83722
rtoes 5.57004
lfemur 13.7493 -19.5934 -16.1832
ltibia 18.8926
lfoot -0.303568 -14.9906
ltoes 24.7767
2342
root -29.053 17.093 -0.874429 362.536 61.1742 -351.893
lowerback 5.90828 1.74925 -5.44904
upperback 0.858599 1.96429 -1.82579
thorax -2.54396 1.03451 1.00982
lowerneck -16.0054 10.061 12.3979
upperneck 22.9281 12.4614 -5.40164
head 11.2243 6.21393 -2.07452
rclavicle 1.80646e-014 -1.47101e-014
rhumerus -39.0597 -3.65415 -62.4813
rradius 33.8467
rwrist -3.15349
rhand -12.4007 -35.1729
rfingers 7.12502
rthumb 13.6708 -64.7039
lclavicle 1.80646e-014 -1.47101e-014
lhumerus -34.896 -7.44083 76.7167
lradius 31.9819
lwrist -4.53652
lhand -15.6276 -20.4368
lfingers 7.12502
lthumb 10.5594 9.27794
rfemur 6.37541 0.903946 8.58245
rtibia 9.17001
rfoot -14.8709 9.39341
rtoes 4.7175
lfemur 13.2489 -19.5742 -15.5222
ltibia 19.1012
lfoot -0.155476 -14.9816
ltoes 25.3429
2343
root -29.0707 17.0932 -0.81085 362.18 61.9079 -352.384
lowerback 5.88486 1.80418 -5.17616
upperback 0.915752 2.06115 -1.67571
thorax -2.47341 1.07789 1.00649
lowerneck -16.1804 9.90724 12.1326
upperneck 22.7979 12.2523 -5.31159
head 11.1614 6.10199 -2.03287
rclavicle 1.34292e-014 -1.59028e-015
rhumerus -38.5646 -3.75706 -61.9615
rradius 34.0148
rwrist -3.11874
rhand -12.5385 -35.3556
rfingers 7.12502
rthumb 13.538 -64.8955
lclavicle 1.34292e-014 -1.59028e-015
lhumerus -34.7517 -7.06561 76.19
lradius 32.019
lwrist -4.79722
lhand -16.5723 -20.2264
lfingers 7.12502
lthumb 9.64797 9.53264
rfemur 6.63668 0.425859 9.09578
rtibia 9.03105
rfoot -14.9487 9.05602
rtoes 3.97072
lfemur 12.8562 -19.125 -14.5575
ltibia 19.3313
lfoot -0.0296608 -15.2547
ltoes 24.0752
2344
root -29.0909 17.0919 -0.748708 361.852 62.674 -352.804
lowerback 5.94587 1.82979 -4.9644
upperback 0.952329 2.10811 -1.54773
thorax -2.46965 1.09879 1.01535
lowerneck -16.3651 9.79967 11.9586
upperneck 22.7674 12.0737 -5.15172
head 11.1437 6.01998 -1.97273
rclavicle -2.44218e-014 1.78906e-014
rhumerus -38.093 -3.6002 -61.5931
rradius 34.2289
rwrist -3.53889
rhand -12.6958 -35.3644
rfingers 7.12502
rthumb 13.3864 -64.9143
lclavicle -2.44218e-014 1.78906e-014
lhumerus -34.7215 -6.06032 75.4187
lradius 32.2218
lwrist -5.29644
lhand -16.8773 -20.1107
lfingers 7.12502
lthumb 9.35374 9.6618
rfemur 6.92053 0.0673778 9.58643
rtibia 8.873
rfoot -15.0403 8.75681
rtoes 4.72297
lfemur 12.1794 -17.8778 -13.1311
ltibia 19.7148
lfoot 0.472807 -16.2932
ltoes 22.775
